HIERARCHY
ROOT hip
{
  OFFSET 0.00112043 5.09927 -9.65472
  CHANNELS 6 Xposition Yposition Zposition Zrotation Xrotation Yrotation
  JOINT abdomen
  {
    OFFSET 0 -1.186 -1.5018
    CHANNELS 3 Zrotation Xrotation Yrotation
    JOINT abdomen2
    {
      OFFSET 0 9.964 0.2134
      CHANNELS 3 Zrotation Xrotation Yrotation
      JOINT chest
      {
        OFFSET 0 13.134 -3.2573
        CHANNELS 3 Zrotation Xrotation Yrotation
        JOINT neck
        {
          OFFSET 0 20.686 -1.6905
          CHANNELS 3 Zrotation Xrotation Yrotation
          JOINT head
          {
            OFFSET 0 7.238 -0.1237
            CHANNELS 3 Zrotation Xrotation Yrotation
            End Site
            {
              OFFSET 0 0 0
            }
          }
        }
        JOINT lCollar
        {
          OFFSET 1.7069 20.075 5.0056
          CHANNELS 3 Zrotation Xrotation Yrotation
          JOINT lShldr
          {
            OFFSET 13.6458 -0.047 -4.849
            CHANNELS 3 Zrotation Xrotation Yrotation
            JOINT lForeArm
            {
              OFFSET 28.3255 -0.9759 2.2888
              CHANNELS 3 Zrotation Xrotation Yrotation
              JOINT lHand
              {
                OFFSET 22.1583 -0.53 10.8316
                CHANNELS 3 Zrotation Xrotation Yrotation
                JOINT lThumb1
                {
                  OFFSET 0.786 0.112 2.5817
                  CHANNELS 3 Zrotation Xrotation Yrotation
                  JOINT lThumb2
                  {
                    OFFSET 0.3601 -0.878 4.2331
                    CHANNELS 3 Zrotation Xrotation Yrotation
                    JOINT lThumb2_End
                    {
                      OFFSET 1.8127 -1.216 2.2227
                      CHANNELS 3 Zrotation Xrotation Yrotation
                      End Site
                      {
                        OFFSET 0.0181 -0.0122 0.0222
                      }
                    }
                  }
                }
                JOINT lCarpal1
                {
                  OFFSET 0.9571 1.114 1.7695
                  CHANNELS 3 Zrotation Xrotation Yrotation
                  JOINT lIndex1
                  {
                    OFFSET 4.1246 0.487 4.1451
                    CHANNELS 3 Zrotation Xrotation Yrotation
                    JOINT lIndex2
                    {
                      OFFSET 3.4052 -1.454 2.7682
                      CHANNELS 3 Zrotation Xrotation Yrotation
                      JOINT lIndex2_End
                      {
                        OFFSET 1.4531 -1.795 1.2713
                        CHANNELS 3 Zrotation Xrotation Yrotation
                        End Site
                        {
                          OFFSET 0.0145 -0.0179 0.0127
                        }
                      }
                    }
                  }
                  JOINT lMid1
                  {
                    OFFSET 5.6954 0.21 2.1184
                    CHANNELS 3 Zrotation Xrotation Yrotation
                    JOINT lMid2
                    {
                      OFFSET 3.9766 -1.54 2.3863
                      CHANNELS 3 Zrotation Xrotation Yrotation
                      JOINT lMid2_End
                      {
                        OFFSET 1.4042 -1.926 1.125
                        CHANNELS 3 Zrotation Xrotation Yrotation
                        End Site
                        {
                          OFFSET 0.014 -0.0193 0.0113
                        }
                      }
                    }
                  }
                }
                JOINT lCarpal2
                {
                  OFFSET 2.0956 0.66 -0.3894
                  CHANNELS 3 Zrotation Xrotation Yrotation
                  JOINT lRing1
                  {
                    OFFSET 5.0395 -0.09 2.4971
                    CHANNELS 3 Zrotation Xrotation Yrotation
                    JOINT lRing2
                    {
                      OFFSET 3.7921 -1.552 1.4806
                      CHANNELS 3 Zrotation Xrotation Yrotation
                      JOINT lRing2_End
                      {
                        OFFSET 1.4655 -1.808 0.9609
                        CHANNELS 3 Zrotation Xrotation Yrotation
                        End Site
                        {
                          OFFSET 0.0147 -0.0181 0.0096
                        }
                      }
                    }
                  }
                  JOINT lPinky1
                  {
                    OFFSET 4.9141 -1.269 0.3591
                    CHANNELS 3 Zrotation Xrotation Yrotation
                    JOINT lPinky2
                    {
                      OFFSET 3.1477 -1.685 0.8462
                      CHANNELS 3 Zrotation Xrotation Yrotation
                      JOINT lPinky2_End
                      {
                        OFFSET 0.8055 -1.585 0.7955
                        CHANNELS 3 Zrotation Xrotation Yrotation
                        End Site
                        {
                          OFFSET 0.0081 -0.0158 0.008
                        }
                      }
                    }
                  }
                }
              }
            }
          }
        }
        JOINT rCollar
        {
          OFFSET -1.7069 20.075 5.0056
          CHANNELS 3 Zrotation Xrotation Yrotation
          JOINT rShldr
          {
            OFFSET -13.6458 -0.047 -4.849
            CHANNELS 3 Zrotation Xrotation Yrotation
            JOINT rForeArm
            {
              OFFSET -28.3255 -0.9759 2.2888
              CHANNELS 3 Zrotation Xrotation Yrotation
              JOINT rHand
              {
                OFFSET -22.1583 -0.53 10.8316
                CHANNELS 3 Zrotation Xrotation Yrotation
                JOINT rThumb1
                {
                  OFFSET -0.786 0.112 2.5817
                  CHANNELS 3 Zrotation Xrotation Yrotation
                  JOINT rThumb2
                  {
                    OFFSET -0.3601 -0.878 4.2331
                    CHANNELS 3 Zrotation Xrotation Yrotation
                    JOINT rThumb2_End
                    {
                      OFFSET -1.8127 -1.216 2.2227
                      CHANNELS 3 Zrotation Xrotation Yrotation
                      End Site
                      {
                        OFFSET -0.0181 -0.0122 0.0222
                      }
                    }
                  }
                }
                JOINT rCarpal1
                {
                  OFFSET -0.9571 1.114 1.7695
                  CHANNELS 3 Zrotation Xrotation Yrotation
                  JOINT rIndex1
                  {
                    OFFSET -4.1246 0.487 4.1451
                    CHANNELS 3 Zrotation Xrotation Yrotation
                    JOINT rIndex2
                    {
                      OFFSET -3.4052 -1.454 2.7682
                      CHANNELS 3 Zrotation Xrotation Yrotation
                      JOINT rIndex2_End
                      {
                        OFFSET -1.4531 -1.795 1.2713
                        CHANNELS 3 Zrotation Xrotation Yrotation
                        End Site
                        {
                          OFFSET -0.0145 -0.018 0.0127
                        }
                      }
                    }
                  }
                  JOINT rMid1
                  {
                    OFFSET -5.6954 0.21 2.1184
                    CHANNELS 3 Zrotation Xrotation Yrotation
                    JOINT rMid2
                    {
                      OFFSET -3.9766 -1.54 2.3863
                      CHANNELS 3 Zrotation Xrotation Yrotation
                      JOINT rMid2_End
                      {
                        OFFSET -1.4042 -1.926 1.125
                        CHANNELS 3 Zrotation Xrotation Yrotation
                        End Site
                        {
                          OFFSET -0.014 -0.0193 0.0113
                        }
                      }
                    }
                  }
                }
                JOINT rCarpal2
                {
                  OFFSET -2.0956 0.66 -0.3894
                  CHANNELS 3 Zrotation Xrotation Yrotation
                  JOINT rRing1
                  {
                    OFFSET -5.0395 -0.09 2.4971
                    CHANNELS 3 Zrotation Xrotation Yrotation
                    JOINT rRing2
                    {
                      OFFSET -3.7921 -1.552 1.4806
                      CHANNELS 3 Zrotation Xrotation Yrotation
                      JOINT rRing2_End
                      {
                        OFFSET -1.4655 -1.808 0.9609
                        CHANNELS 3 Zrotation Xrotation Yrotation
                        End Site
                        {
                          OFFSET -0.0147 -0.0181 0.0096
                        }
                      }
                    }
                  }
                  JOINT rPinky1
                  {
                    OFFSET -4.9141 -1.269 0.3592
                    CHANNELS 3 Zrotation Xrotation Yrotation
                    JOINT rPinky2
                    {
                      OFFSET -3.1477 -1.685 0.8462
                      CHANNELS 3 Zrotation Xrotation Yrotation
                      JOINT rPinky2_End
                      {
                        OFFSET -0.8055 -1.585 0.7955
                        CHANNELS 3 Zrotation Xrotation Yrotation
                        End Site
                        {
                          OFFSET -0.0081 -0.0158 0.008
                        }
                      }
                    }
                  }
                }
              }
            }
          }
        }
      }
    }
  }
  JOINT lThigh
  {
    OFFSET 8.367 -8.2066 0.5982
    CHANNELS 3 Zrotation Xrotation Yrotation
    JOINT lShin
    {
      OFFSET 2.1923 -43.463 -0.4932
      CHANNELS 3 Zrotation Xrotation Yrotation
      JOINT lFoot
      {
        OFFSET 0.7333 -45.8593 -2.6451
        CHANNELS 3 Zrotation Xrotation Yrotation
        End Site
        {
          OFFSET 2.6618 -4.2699 12.3931
        }
      }
    }
  }
  JOINT rThigh
  {
    OFFSET -8.367 -8.2066 0.5982
    CHANNELS 3 Zrotation Xrotation Yrotation
    JOINT rShin
    {
      OFFSET -2.1923 -43.463 -0.4931
      CHANNELS 3 Zrotation Xrotation Yrotation
      JOINT rFoot
      {
        OFFSET -0.7333 -45.8593 -2.6451
        CHANNELS 3 Zrotation Xrotation Yrotation
        End Site
        {
          OFFSET -2.6618 -4.2699 12.3931
        }
      }
    }
  }
}
MOTION
Frames:	6
Frame Time:	0.0333333
0 91.7903 2.51682 0 0 -0 0 0 -0 0 0 -0 0 0 -0 0 0 -0 0 0 -0 0 0 -0 1.66051 0.0835086 5.75766 -0.0175111 0.895433 15.7816 7.95139e-016 -1.98785e-016 -0 5.46658e-016 -3.97569e-016 -0 5.96354e-016 0 -0 3.97569e-016 1.98785e-016 9.54166e-015 1.49089e-016 -3.97569e-016 -0 6.4605e-016 0 3.18055e-015 5.96354e-016 0 3.18055e-015 8.94531e-016 -1.98785e-016 6.36111e-015 6.4605e-016 0 3.18055e-015 5.96354e-016 0 3.18055e-015 8.94531e-016 -1.98785e-016 6.36111e-015 1.49089e-016 -3.97569e-016 -0 6.4605e-016 0 3.18055e-015 5.96354e-016 0 3.18055e-015 8.94531e-016 -1.98785e-016 6.36111e-015 6.4605e-016 0 3.18055e-015 5.96354e-016 0 3.18055e-015 8.94531e-016 -1.98785e-016 6.36111e-015 0 0 -0 -1.4496 0.0636048 -5.0245 -1.74811 1.20616 -16.8394 -1.19271e-015 1.98785e-016 -3.18055e-015 -3.97569e-016 1.98785e-016 -3.18055e-015 -2.98177e-016 1.98785e-016 -3.18055e-015 -2.98177e-016 3.97569e-016 -0 4.96962e-016 0 -6.36111e-015 -9.93923e-017 3.97569e-016 -0 -8.94531e-016 5.96354e-016 -0 -3.97569e-016 3.97569e-016 -0 -9.93923e-017 3.97569e-016 -0 -8.94531e-016 5.96354e-016 -0 -3.97569e-016 3.97569e-016 -0 4.96962e-016 0 -6.36111e-015 -9.93923e-017 3.97569e-016 -0 -8.94531e-016 5.96354e-016 -0 -3.97569e-016 3.97569e-016 -0 -9.93923e-017 3.97569e-016 -0 -8.94531e-016 5.96354e-016 -0 -3.97569e-016 3.97569e-016 -0 -4.66111 -0.998717 0.12318 0.00986924 1.54847 0.176523 4.65186 -0.572283 -0.254274 4.66111 -0.998765 -0.123176 -0.00986867 1.54869 -0.176537 -4.65186 -0.572453 0.25427 
-8.33642 29.1686 -12.1266 -0 -3.00261 -0 -0.397686 0.743404 3.02443 -0.83415 1.46477 6.05467 -0.83415 1.46477 6.05467 13.997 3.38509e-005 4.83236e-005 -3.07864e-006 -0.49135 6.65015e-007 27.1928 6.99353 -73.6079 -37.4323 -14.9504 -6.55992 -58.1514 -18.7275 -72.7423 -14.6548 38.4019 6.46226 6.25699e-007 -3.70356e-007 -4.44482e-007 1.2514e-006 -7.40712e-007 -8.88965e-007 6.36111e-015 -7.95139e-016 -2.78299e-015 -6.36111e-015 -9.54166e-015 -1.59028e-015 6.25699e-007 -3.70356e-007 -4.44482e-007 1.2514e-006 -7.40712e-007 -8.88965e-007 -5.46221e-031 -7.15625e-015 -4.37326e-015 6.25699e-007 -3.70356e-007 -4.44482e-007 1.2514e-006 -7.40712e-007 -8.88965e-007 -5.46221e-031 -7.15625e-015 -4.37326e-015 -6.36111e-015 -9.54166e-015 -1.59028e-015 6.25699e-007 -3.70356e-007 -4.44482e-007 1.2514e-006 -7.40712e-007 -8.88965e-007 -5.46221e-031 -7.15625e-015 -4.37326e-015 6.25699e-007 -3.70356e-007 -4.44482e-007 1.2514e-006 -7.40712e-007 -8.88965e-007 -5.46221e-031 -7.15625e-015 -4.37326e-015 -1.24707 -18.2152 6.78744 75.4601 6.35488 14.9301 -13.6477 -6.04398 23.2565 64.326 26.5628 -26.7523 5.51738e-032 -7.95139e-016 3.97569e-015 -5.08351e-006 3.68577e-006 -8.0851e-006 2.05091e-006 1.63086e-006 -1.93635e-006 -1.59028e-015 0 4.17448e-015 -3.18055e-015 -3.97569e-015 1.33186e-014 -5.08351e-006 3.68577e-006 -8.0851e-006 2.05091e-006 1.63086e-006 -1.93635e-006 -3.18055e-015 -3.97569e-015 1.33186e-014 -5.08351e-006 3.68577e-006 -8.0851e-006 2.05091e-006 1.63086e-006 -1.93635e-006 -1.59028e-015 0 4.17448e-015 -3.18055e-015 -3.97569e-015 1.33186e-014 -5.08351e-006 3.68577e-006 -8.0851e-006 2.05091e-006 1.63086e-006 -1.93635e-006 -3.18055e-015 -3.97569e-015 1.33186e-014 -5.08351e-006 3.68577e-006 -8.0851e-006 2.05091e-006 1.63086e-006 -1.93635e-006 120.609 -34.9541 120.291 157.396 55.6762 -142.382 -18.7146 -0.322515 -17.3583 -115.824 -45.284 -134.352 -163.615 44.3805 145.785 12.831 -24.0576 7.66823 
-8.32928 29.4313 -12.2617 -0 -4.81472 -0 -0.325655 1.35719 3.02979 -0.722932 2.69525 6.06977 -0.722931 2.69525 6.06977 13.6992 -0.35804 -0.151001 2.62226e-006 -0.969661 -4.00169e-006 26.9568 6.05044 -73.3583 -37.0913 -15.0695 -6.47186 -58.1765 -19.068 -72.6775 -14.7157 38.3044 6.23844 3.12796e-007 -1.85301e-007 -2.222e-007 -1.99123e-006 -5.0883e-007 -6.11574e-006 -3.12796e-007 1.85301e-007 2.222e-007 3.18055e-015 -2.38542e-015 -1.98785e-015 3.12796e-007 -1.85301e-007 -2.222e-007 -1.99123e-006 -5.0883e-007 -6.11574e-006 -3.12796e-007 1.85301e-007 2.222e-007 3.12796e-007 -1.85301e-007 -2.222e-007 -1.99123e-006 -5.0883e-007 -6.11574e-006 -3.12796e-007 1.85301e-007 2.222e-007 3.18055e-015 -2.38542e-015 -1.98785e-015 3.12796e-007 -1.85301e-007 -2.222e-007 -1.99123e-006 -5.0883e-007 -6.11574e-006 -3.12796e-007 1.85301e-007 2.222e-007 3.12796e-007 -1.85301e-007 -2.222e-007 -1.99123e-006 -5.0883e-007 -6.11574e-006 -3.12796e-007 1.85301e-007 2.222e-007 -1.45316 -19.3955 7.17158 75.1061 6.18917 14.9733 -13.6559 -6.05152 23.2478 64.3341 26.5521 -26.7474 4.77083e-015 0 -4.96962e-015 6.36111e-015 7.95139e-016 -5.1684e-015 -2.05363e-006 -1.63231e-006 1.92989e-006 3.18055e-015 7.95139e-016 -4.77083e-015 4.77083e-015 2.38542e-015 -5.1684e-015 6.36111e-015 7.95139e-016 -2.78299e-015 -2.05363e-006 -1.63231e-006 1.92989e-006 4.77083e-015 2.38542e-015 -5.1684e-015 6.36111e-015 7.95139e-016 -2.78299e-015 -2.05363e-006 -1.63231e-006 1.92989e-006 3.18055e-015 7.95139e-016 -4.77083e-015 4.77083e-015 2.38542e-015 -5.1684e-015 6.36111e-015 7.95139e-016 -2.78299e-015 -2.05363e-006 -1.63231e-006 1.92989e-006 4.77083e-015 2.38542e-015 -5.1684e-015 6.36111e-015 7.95139e-016 -2.78299e-015 -2.05363e-006 -1.63231e-006 1.92989e-006 118.887 -34.502 118.353 157.401 55.677 -142.436 -17.6782 -0.411778 -18.2121 -112.753 -45.0965 -131.09 -163.455 44.6603 145.815 12.2863 -24.2135 8.47555 
-8.32075 29.6864 -12.3972 -0 -6.63424 -0 -0.25329 1.97305 3.03282 -0.611288 3.9299 6.07972 -0.611288 3.9299 6.07972 13.3996 -0.716004 -0.304112 -4.25413e-008 -1.44867 -3.05179e-006 26.7251 5.10522 -73.1127 -36.7498 -15.1882 -6.38302 -58.2013 -19.4086 -72.6127 -14.777 38.2071 6.01474 -1.27222e-014 1.59028e-015 -8.34896e-015 3.18055e-015 1.59028e-015 -1.23246e-014 -3.18055e-015 5.56597e-015 4.37326e-015 -1.27222e-014 -1.59028e-015 -8.34896e-015 -3.18055e-015 2.38542e-015 -1.19271e-015 3.18055e-015 7.95139e-016 3.18055e-015 -6.36111e-015 0 1.59028e-015 -3.18055e-015 2.38542e-015 -1.19271e-015 3.18055e-015 7.95139e-016 3.18055e-015 -6.36111e-015 0 1.59028e-015 -1.27222e-014 -1.59028e-015 -8.34896e-015 -3.18055e-015 2.38542e-015 -1.19271e-015 3.18055e-015 7.95139e-016 3.18055e-015 -6.36111e-015 0 1.59028e-015 -3.18055e-015 2.38542e-015 -1.19271e-015 3.18055e-015 7.95139e-016 3.18055e-015 -6.36111e-015 0 1.59028e-015 -1.65272 -20.5795 7.55489 74.7521 6.02316 15.0153 -13.664 -6.05908 23.2391 64.3421 26.5415 -26.7426 9.93129e-032 -1.59028e-015 3.57812e-015 -1.3292e-007 -6.01482e-007 3.98e-006 -3.18055e-015 3.18055e-015 -2.10712e-014 9.93129e-032 -1.59028e-015 3.57812e-015 4.77083e-015 0 1.64991e-014 -1.3292e-007 -6.01482e-007 3.98e-006 -1.59028e-015 3.18055e-015 -1.82882e-014 4.77083e-015 0 1.64991e-014 -1.3292e-007 -6.01482e-007 3.98e-006 -1.59028e-015 3.18055e-015 -1.82882e-014 9.93129e-032 -1.59028e-015 3.57812e-015 4.77083e-015 0 1.64991e-014 -1.3292e-007 -6.01482e-007 3.98e-006 -1.59028e-015 3.18055e-015 -1.82882e-014 4.77083e-015 0 1.64991e-014 -1.3292e-007 -6.01482e-007 3.98e-006 -1.59028e-015 3.18055e-015 -1.82882e-014 117.195 -33.9938 116.431 157.408 55.6762 -142.496 -16.6452 -0.5092 -19.0662 -109.717 -44.7829 -127.851 -163.294 44.9396 145.846 11.7471 -24.3657 9.28337 
-8.31088 29.9337 -12.5334 -0 -8.46031 -0 -0.180579 2.59073 3.0335 -0.499071 5.16821 6.08448 -0.499071 5.16821 6.08448 13.0982 -1.07372 -0.45935 -2.87313e-006 -1.92836 -3.26341e-006 26.4975 4.15803 -72.8709 -36.4079 -15.3064 -6.29337 -58.2257 -19.7493 -72.5478 -14.8387 38.1099 5.79119 1.25082e-006 -7.41996e-007 -8.88551e-007 9.54166e-015 8.74653e-015 8.34896e-015 9.38118e-007 -5.56497e-007 -6.66414e-007 3.18055e-015 3.97569e-015 -4.77083e-015 1.25082e-006 -7.41996e-007 -8.88551e-007 -3.86217e-032 7.95139e-016 2.78299e-015 9.38118e-007 -5.56497e-007 -6.66414e-007 1.25082e-006 -7.41996e-007 -8.88551e-007 -3.86217e-032 7.95139e-016 2.78299e-015 9.38118e-007 -5.56497e-007 -6.66414e-007 3.18055e-015 3.97569e-015 -4.77083e-015 1.25082e-006 -7.41996e-007 -8.88551e-007 -3.86217e-032 7.95139e-016 2.78299e-015 9.38118e-007 -5.56497e-007 -6.66414e-007 1.25082e-006 -7.41996e-007 -8.88551e-007 -3.86217e-032 7.95139e-016 2.78299e-015 9.38118e-007 -5.56497e-007 -6.66414e-007 -1.8457 -21.7668 7.93752 74.3984 5.85687 15.0564 -13.6722 -6.06664 23.2304 64.3502 26.5309 -26.7378 -1.59028e-015 3.18055e-015 -9.74045e-015 2.0594e-006 1.63467e-006 -1.91731e-006 7.72434e-032 -3.18055e-015 1.39149e-015 -0 0 2.98177e-015 -3.18055e-015 -1.59028e-015 2.78299e-015 2.0594e-006 1.63467e-006 -1.91731e-006 3.18055e-015 0 1.59028e-015 -3.18055e-015 -1.59028e-015 2.78299e-015 2.0594e-006 1.63467e-006 -1.91731e-006 3.18055e-015 0 1.59028e-015 -0 0 2.98177e-015 -3.18055e-015 -1.59028e-015 2.78299e-015 2.0594e-006 1.63467e-006 -1.91731e-006 3.18055e-015 0 1.59028e-015 -3.18055e-015 -1.59028e-015 2.78299e-015 2.0594e-006 1.63467e-006 -1.91731e-006 3.18055e-015 0 1.59028e-015 115.538 -33.4312 114.529 157.418 55.6737 -142.561 -15.6159 -0.614082 -19.9198 -106.736 -44.3467 -124.655 -163.133 45.2182 145.879 11.2128 -24.5137 10.0913 
-8.29967 30.1727 -12.6704 -0 -10.292 -0 -0.107508 3.20995 3.03181 -0.386127 6.40968 6.08397 -0.386127 6.40968 6.08398 12.7958 -1.43103 -0.616682 1.88475e-006 -2.40872 1.36248e-006 26.2739 3.209 -72.633 -36.0656 -15.424 -6.20293 -58.2498 -20.09 -72.483 -14.9008 38.013 5.56778 -3.7324e-006 -2.0027e-006 -4.53322e-006 5.92109e-006 7.03676e-007 2.97842e-006 3.94789e-006 9.49985e-006 -5.26872e-006 -3.18055e-015 -6.36111e-015 -8.74653e-015 -3.7324e-006 -2.0027e-006 -4.53322e-006 5.92109e-006 7.03676e-007 2.97842e-006 3.94789e-006 9.49985e-006 -5.26872e-006 -3.7324e-006 -2.0027e-006 -4.53322e-006 5.92109e-006 7.03676e-007 2.97842e-006 3.94789e-006 9.49985e-006 -5.26872e-006 -3.18055e-015 -6.36111e-015 -8.74653e-015 -3.7324e-006 -2.0027e-006 -4.53322e-006 5.92109e-006 7.03676e-007 2.97842e-006 3.94789e-006 9.49985e-006 -5.26872e-006 -3.7324e-006 -2.0027e-006 -4.53322e-006 5.92109e-006 7.03676e-007 2.97842e-006 3.94789e-006 9.49985e-006 -5.26872e-006 -2.03199 -22.957 8.31963 74.0448 5.69032 15.0964 -13.6803 -6.07419 23.2217 64.3583 26.5202 -26.7329 2.06245e-006 1.63558e-006 -1.9112e-006 2.06245e-006 1.63558e-006 -1.9112e-006 1.9112e-006 1.03988e-006 2.06245e-006 -1.59028e-015 -1.59028e-015 9.93923e-016 2.06245e-006 1.63558e-006 -1.9112e-006 2.06245e-006 1.63558e-006 -1.9112e-006 1.9112e-006 1.03988e-006 2.06245e-006 2.06245e-006 1.63558e-006 -1.9112e-006 2.06245e-006 1.63558e-006 -1.9112e-006 1.9112e-006 1.03988e-006 2.06245e-006 -1.59028e-015 -1.59028e-015 9.93923e-016 2.06245e-006 1.63558e-006 -1.9112e-006 2.06245e-006 1.63558e-006 -1.9112e-006 1.9112e-006 1.03988e-006 2.06245e-006 2.06245e-006 1.63558e-006 -1.9112e-006 2.06245e-006 1.63558e-006 -1.9112e-006 1.9112e-006 1.03988e-006 2.06245e-006 113.921 -32.8164 112.651 157.429 55.6696 -142.632 -14.5903 -0.725768 -20.7724 -103.828 -43.7922 -121.518 -162.97 45.496 145.913 10.683 -24.657 10.8988 
